# xmcd CD database file
#
# Track frame offsets:
#	182
#	23292
#	43922
#	73810
#	96410
#	123515
#	142850
#	163082
#	185582
#
# Disc length: 2849 seconds
#
# Revision: 2
# Processed by: cddbd v1.5.1PL0 Copyright (c) Steve Scherf et al.
# Submitted via: CDex 1.51
#
DISCID=7b0b1f09
DTITLE=Doc Powell - Love Is Where It's At
DYEAR=1988
DGENRE=Jazz
TTITLE0=Give It Up
TTITLE1=Love Is Where It's At
TTITLE2=What's Going On
TTITLE3=Bad Times
TTITLE4=What I Like
TTITLE5=Love Finds A Way
TTITLE6=Don't Waste My Time
TTITLE7=Let You Know
TTITLE8=M and M
EXTD=YEAR: 1988
EXTT0=
EXTT1=
EXTT2=
EXTT3=
EXTT4=
EXTT5=
EXTT6=
EXTT7=
EXTT8=
PLAYORDER=
